<svg width="24" height="24" viewBox="0 0 24 24" fill="none" xmlns="http://www.w3.org/2000/svg">
<rect width="24" height="24" fill="white"/>
<path fill-rule="evenodd" clip-rule="evenodd" d="M18.2222 4H5.77778C4.8 4 4 4.8 4 5.77778V18.2222C4 19.2 4.8 20 5.77778 20H18.2222C19.2 20 20 19.2 20 18.2222V5.77778C20 4.8 19.2 4 18.2222 4ZM10.9153 15.778C10.5282 16.1502 9.91622 16.1502 9.52911 15.778L6.42439 12.7927C6.07145 12.4533 6.07145 11.8886 6.42439 11.5492C6.75829 11.2281 7.28616 11.2281 7.62005 11.5492L10.2222 14.0513L16.3799 8.13039C16.7138 7.80934 17.2417 7.80934 17.5756 8.13039C17.9285 8.46976 17.9285 9.03452 17.5756 9.37388L10.9153 15.778Z" fill="#111111"/>
</svg>
