<svg width="125" height="12" viewBox="0 0 125 12" fill="none" xmlns="http://www.w3.org/2000/svg">
<path d="M1.64275 12H0V0H1.64275V12Z" fill="black"/>
<path d="M23.0332 5.93348C23.0332 9.97783 20.9224 12 16.7008 12H12.7637V0H16.7008C20.9224 0 23.0332 1.97783 23.0332 5.93348ZM21.3354 5.93348C21.3354 5.23577 21.2619 4.60902 21.1151 4.05322C20.9744 3.4915 20.7266 3.01848 20.3717 2.63415C20.023 2.2439 19.5488 1.94531 18.9492 1.73836C18.3497 1.53141 17.5941 1.42794 16.6824 1.42794H14.4065V10.5721H16.6824C17.5879 10.5721 18.3405 10.4686 18.9401 10.2616C19.5397 10.0488 20.0169 9.74427 20.3717 9.34811C20.7266 8.94605 20.9744 8.45824 21.1151 7.8847C21.2619 7.31116 21.3354 6.66075 21.3354 5.93348Z" fill="black"/>
<path d="M35.3197 12H33.6769V0H35.3197V12Z" fill="black"/>
<path d="M54.1312 12H46.4406V0H48.0834V10.5721H54.1312V12Z" fill="black"/>
<path d="M71.9425 12H64.2519V0H65.8946V10.5721H71.9425V12Z" fill="black"/>
<path d="M83.9261 12H82.2834V0H83.9261V12Z" fill="black"/>
<path d="M105.206 12H103.05L98.6263 6.0133L96.6898 7.83149V12H95.0471V0H96.6898V5.94235L102.765 0H104.977L99.7734 4.92239L105.206 12Z" fill="black"/>
<path d="M121.219 7.07761L119.026 1.5255L116.942 7.07761H121.219ZM125 12H123.137L121.696 8.35477H116.493L115.125 12H113.391L118.154 0H119.934L125 12Z" fill="black"/>
</svg>
